<svg xmlns="http://www.w3.org/2000/svg" viewBox="0 0 24 24"><rect width="24" height="24" rx="5" fill="#2F6050"></rect><g transform="translate(3.6,3.6) scale(0.7)" fill="none" stroke="#F4FAF6" stroke-width="2" stroke-linecap="round" stroke-linejoin="round"><path d="M12 5a3 3 0 1 1 3 3m-3-3a3 3 0 1 0-3 3m3-3v1M9 8a3 3 0 1 0 3 3M9 8h1m5 0a3 3 0 1 1-3 3m3-3h-1m-2 3v-1"></path><circle cx="12" cy="8" r="2"></circle><path d="M12 10v12"></path><path d="M12 22c4.2 0 7-1.667 7-5-4.2 0-7 1.667-7 5Z"></path><path d="M12 22c-4.2 0-7-1.667-7-5 4.2 0 7 1.667 7 5Z"></path></g></svg>